<svg width="39" height="38" viewBox="0 0 39 38" fill="none" xmlns="http://www.w3.org/2000/svg">
<path id="Vector" d="M19.3471 0C27.9159 0 34.9124 6.22397 35.2067 14.1225L35.2156 14.6114V22.5931L38.1354 28.7416C38.2816 29.0492 38.3569 29.3814 38.3569 29.7173C38.3569 31.0621 37.1729 32.1525 35.7122 32.1525L25.6945 32.1554C25.6945 35.3832 22.8528 38 19.3471 38C15.9667 38 13.2036 35.5667 13.0105 32.4987L12.9988 32.151L3.00236 32.1525C2.63984 32.1525 2.2812 32.0837 1.94868 31.9509C0.608955 31.4149 -0.0053665 29.9807 0.576562 28.7471L3.47869 22.5949V14.6112C3.47996 6.5169 10.571 0 19.3471 0ZM22.52 32.151L16.1734 32.1554C16.1734 33.7693 17.5944 35.0777 19.3471 35.0777C20.9968 35.0777 22.3526 33.9187 22.5062 32.4368L22.52 32.151ZM19.3471 2.92228C12.3224 2.92228 6.6534 8.13224 6.65239 14.6114V23.2022L3.8088 29.2302H34.9035L32.0419 23.2041L32.0421 14.6365L32.0343 14.1977C31.7992 7.8983 26.2057 2.92228 19.3471 2.92228Z" fill="white"/>
</svg>
