<svg width="39" height="39" viewBox="0 0 39 39" fill="none" xmlns="http://www.w3.org/2000/svg">
<g id="Group">
<path id="Vector" d="M37.6554 34.2741L30.2315 26.8471C35.7864 19.4238 34.2718 8.90283 26.8485 3.34792C19.4252 -2.20698 8.90423 -0.692336 3.34933 6.73095C-2.20557 14.1542 -0.690932 24.6752 6.73235 30.2301C12.6953 34.6923 20.8854 34.6923 26.8485 30.2301L34.2755 37.6571C35.2088 38.5904 36.722 38.5904 37.6553 37.6571C38.5886 36.7238 38.5886 35.2105 37.6553 34.2773L37.6554 34.2741ZM16.8523 28.7966C10.2548 28.7966 4.9066 23.4484 4.9066 16.8509C4.9066 10.2534 10.2548 4.9052 16.8523 4.9052C23.4498 4.9052 28.798 10.2534 28.798 16.8509C28.791 23.4454 23.4469 28.7896 16.8523 28.7966Z" fill="#EEEEEE"/>
</g>
</svg>
