<svg width="39" height="40" viewBox="0 0 39 40" fill="none" xmlns="http://www.w3.org/2000/svg">
<g clip-path="url(#clip0_151_84)">
<path d="M30.6177 21.6525C30.6817 21.173 30.7136 20.6775 30.7136 20.15C30.7136 19.6386 30.6817 19.1271 30.6017 18.6476L33.8464 16.1222C34.1341 15.8985 34.214 15.4669 34.0382 15.1472L30.9694 9.84078C30.7776 9.48915 30.378 9.37726 30.0264 9.48915L26.2063 11.0235C25.4072 10.4162 24.56 9.90471 23.617 9.52111L23.0416 5.46135C22.9777 5.07775 22.658 4.80603 22.2744 4.80603H16.1368C15.7532 4.80603 15.4495 5.07775 15.3856 5.46135L14.8102 9.52111C13.8672 9.90471 13.0041 10.4322 12.2209 11.0235L8.4009 9.48915C8.04927 9.36128 7.64968 9.48915 7.45788 9.84078L4.40507 15.1472C4.21327 15.4829 4.2772 15.8985 4.59687 16.1222L7.84148 18.6476C7.76157 19.1271 7.69763 19.6545 7.69763 20.15C7.69763 20.6455 7.7296 21.173 7.80952 21.6525L4.5649 24.1778C4.2772 24.4016 4.19728 24.8331 4.3731 25.1528L7.4419 30.4593C7.6337 30.8109 8.03328 30.9228 8.38492 30.8109L12.2049 29.2765C13.0041 29.8839 13.8512 30.3953 14.7942 30.7789L15.3696 34.8387C15.4495 35.2223 15.7532 35.494 16.1368 35.494H22.2744C22.658 35.494 22.9777 35.2223 23.0257 34.8387L23.601 30.7789C24.5441 30.3953 25.4072 29.8839 26.1904 29.2765L30.0104 30.8109C30.362 30.9388 30.7616 30.8109 30.9534 30.4593L34.0222 25.1528C34.214 24.8012 34.1341 24.4016 33.8304 24.1778L30.6177 21.6525ZM19.2056 25.904C16.0409 25.904 13.4516 23.3147 13.4516 20.15C13.4516 16.9853 16.0409 14.396 19.2056 14.396C22.3703 14.396 24.9596 16.9853 24.9596 20.15C24.9596 23.3147 22.3703 25.904 19.2056 25.904Z" fill="white"/>
</g>
<defs>
<clipPath id="clip0_151_84">
<rect width="38.36" height="38.36" fill="white" transform="translate(0.0256348 0.970032)"/>
</clipPath>
</defs>
</svg>
