<svg width="39" height="40" viewBox="0 0 39 40" fill="none" xmlns="http://www.w3.org/2000/svg">
<g clip-path="url(#clip0_2_75)">
<path d="M38.0651 35.2441L30.6413 27.8171C36.1962 20.3938 34.6815 9.87289 27.2582 4.31799C19.835 -1.23691 9.314 0.277726 3.7591 7.70101C-1.7958 15.1243 -0.281157 25.6452 7.14213 31.2001C13.1051 35.6623 21.2952 35.6623 27.2582 31.2001L34.6853 38.6272C35.6186 39.5605 37.1318 39.5605 38.0651 38.6272C38.9984 37.6938 38.9984 36.1806 38.0651 35.2474L38.0651 35.2441ZM17.2621 29.7667C10.6646 29.7667 5.31638 24.4184 5.31638 17.821C5.31638 11.2235 10.6646 5.87526 17.2621 5.87526C23.8595 5.87526 29.2078 11.2235 29.2078 17.821C29.2008 24.4154 23.8566 29.7596 17.2621 29.7667Z" fill="#EEEEEE"/>
</g>
<defs>
<clipPath id="clip0_2_75">
<rect width="38.3568" height="38.3568" fill="white" transform="translate(0.409424 0.970032)"/>
</clipPath>
</defs>
</svg>
