<svg width="35" height="27" viewBox="0 0 35 27" fill="none" xmlns="http://www.w3.org/2000/svg">
<g id="&#240;&#159;&#166;&#134; icon &#34;Box Open&#34;">
<path id="Vector" d="M22.8326 13.0218C21.9263 13.0218 21.0736 12.4987 20.6123 11.6617L17.1639 5.46575L13.7209 11.6617C13.2543 12.5045 12.4016 13.0276 11.4952 13.0276C11.2539 13.0276 11.0125 12.9927 10.7819 12.9172L3.4346 10.6387V20.9847C3.4346 21.8391 3.9709 22.5831 4.73245 22.7865L16.3273 25.931C16.8743 26.0763 17.4482 26.0763 17.9898 25.931L29.5954 22.7865C30.3569 22.5773 30.8932 21.8333 30.8932 20.9847V10.6387L23.5459 12.9114C23.3153 12.9869 23.074 13.0218 22.8326 13.0218ZM34.2344 6.50035L31.4724 0.52526C31.3062 0.164894 30.9469 -0.0443504 30.5768 0.00796075L17.1639 1.8621L22.0818 10.7027C22.2856 11.0689 22.6932 11.2432 23.074 11.127L33.6874 7.843C34.2183 7.67444 34.4757 7.03509 34.2344 6.50035ZM2.85539 0.52526L0.0934412 6.50035C-0.153257 7.03509 0.10953 7.67444 0.635106 7.83719L11.2485 11.1212C11.6293 11.2374 12.0369 11.063 12.2407 10.6969L17.1639 1.8621L3.74565 0.00796075C3.37561 -0.038538 3.02165 0.164894 2.85539 0.52526Z" fill="#F95D2C"/>
</g>
</svg>
