<svg width="34" height="34" viewBox="0 0 34 34" fill="none" xmlns="http://www.w3.org/2000/svg">
<g id="&#240;&#159;&#166;&#134; icon &#34;Meteor&#34;">
<path id="Vector" d="M33.9556 1.38047C33.1847 3.95078 31.6772 8.79877 29.8844 13.846C30.3492 13.985 30.7746 14.1116 31.1201 14.2175C31.2706 14.2634 31.4092 14.342 31.5258 14.4478C31.6424 14.5536 31.7341 14.6838 31.7944 14.8292C31.8547 14.9746 31.8821 15.1316 31.8746 15.2888C31.867 15.4461 31.8248 15.5997 31.7509 15.7387C30.2828 18.5477 26.2593 25.8861 22.2887 29.9776C22.2223 30.0502 22.1559 30.1436 22.0895 30.21C19.6632 32.6369 16.3723 34.0005 12.9407 34.001C9.50903 34.0014 6.21777 32.6386 3.79092 30.2124C1.36408 27.7862 0.000440128 24.4952 1.06523e-07 21.0636C-0.000439915 17.632 1.36235 14.3407 3.78858 11.9138C3.85498 11.8474 3.94835 11.781 4.02098 11.7146C8.11194 7.73619 15.442 3.71834 18.2579 2.25107C18.3968 2.17715 18.5505 2.13491 18.7077 2.12738C18.8649 2.11986 19.0219 2.14723 19.1673 2.20754C19.3127 2.26785 19.4429 2.35961 19.5487 2.47621C19.6544 2.59282 19.733 2.73139 19.7789 2.88198C19.8847 3.22026 20.0113 3.65193 20.1503 4.1168C25.1906 2.32371 30.0441 0.815979 32.6141 0.0460287C32.7998 -0.0101367 32.9972 -0.0149951 33.1854 0.031969C33.3737 0.078933 33.5457 0.175968 33.6832 0.312781C33.8207 0.449595 33.9187 0.621085 33.9666 0.80906C34.0146 0.997036 34.0108 1.19449 33.9556 1.38047ZM21.2459 21.2508C21.2457 19.5698 20.747 17.9267 19.813 16.5291C18.8789 15.1315 17.5514 14.0423 15.9983 13.3992C14.4452 12.7561 12.7363 12.588 11.0877 12.9161C9.43903 13.2441 7.92469 14.0537 6.73615 15.2424C5.54761 16.4311 4.73824 17.9456 4.41039 19.5943C4.08253 21.243 4.25092 22.9519 4.89425 24.5048C5.53759 26.0578 6.62698 27.3852 8.02467 28.3191C9.42236 29.2529 11.0656 29.7514 12.7466 29.7514C13.8628 29.7514 14.9682 29.5316 15.9995 29.1044C17.0307 28.6772 17.9678 28.051 18.757 27.2616C19.5463 26.4723 20.1723 25.5351 20.5994 24.5038C21.0264 23.4724 21.2461 22.3671 21.2459 21.2508ZM12.7466 19.1256C12.7465 19.5459 12.6218 19.9567 12.3883 20.3061C12.1548 20.6555 11.8229 20.9278 11.4346 21.0885C11.0464 21.2493 10.6191 21.2914 10.207 21.2093C9.79482 21.1273 9.41624 20.9249 9.1191 20.6277C8.82197 20.3306 8.61963 19.9519 8.53766 19.5398C8.4557 19.1276 8.4978 18.7004 8.65863 18.3121C8.81946 17.9239 9.09181 17.5921 9.44123 17.3586C9.79066 17.1251 10.2015 17.0005 10.6217 17.0005C10.9009 17.0002 11.1773 17.0549 11.4353 17.1616C11.6933 17.2683 11.9276 17.4249 12.125 17.6223C12.3224 17.8197 12.4789 18.0541 12.5855 18.312C12.6922 18.57 12.7469 18.8465 12.7466 19.1256ZM14.8714 24.4385C14.8714 24.6486 14.809 24.854 14.6923 25.0287C14.5755 25.2034 14.4096 25.3396 14.2154 25.42C14.0213 25.5003 13.8077 25.5214 13.6016 25.4804C13.3955 25.4393 13.2062 25.3381 13.0577 25.1896C12.9091 25.041 12.8079 24.8517 12.767 24.6456C12.726 24.4395 12.747 24.2259 12.8274 24.0318C12.9079 23.8376 13.044 23.6717 13.2187 23.555C13.3935 23.4382 13.5989 23.3759 13.809 23.3759C14.0905 23.3769 14.3602 23.4891 14.5593 23.6882C14.7583 23.8873 14.8705 24.157 14.8714 24.4385Z" fill="#F95D2C"/>
</g>
</svg>
