<svg width="60" height="61" viewBox="0 0 60 61" fill="none" xmlns="http://www.w3.org/2000/svg">
<g clip-path="url(#clip0_286_68)">
<path d="M29.999 29.2333C37.8194 29.2333 44.159 22.8937 44.159 15.0733C44.159 7.253 37.8194 0.913361 29.999 0.913361C22.1787 0.913361 15.8391 7.253 15.8391 15.0733C15.8391 22.8937 22.1787 29.2333 29.999 29.2333Z" fill="#141414"/>
<path d="M46.8447 31.4252C46.6214 31.2735 46.1722 30.9817 46.1722 30.9817C42.5527 36.0069 36.6516 39.2847 29.999 39.2847C23.3458 39.2847 17.4441 36.0062 13.8247 30.9799C13.8247 30.9799 13.4471 31.2271 13.2596 31.3534C5.26041 36.7415 -0.0010376 45.8827 -0.0010376 56.2527V59.3984H59.999V56.2527C59.999 45.9287 54.7841 36.8227 46.8447 31.4252Z" fill="#141414"/>
</g>
<defs>
<clipPath id="clip0_286_68">
<rect width="60" height="60" fill="white" transform="translate(-0.0010376 0.155823)"/>
</clipPath>
</defs>
</svg>
