<svg width="34" height="34" viewBox="0 0 34 34" fill="none" xmlns="http://www.w3.org/2000/svg">
<path d="M21.25 23.0714C21.25 23.7423 20.7745 24.2857 20.1875 24.2857H13.8125C13.2255 24.2857 12.75 23.7423 12.75 23.0714V19.4286H0V30.3571C0 32.3 1.4875 34 3.1875 34H30.8125C32.5125 34 34 32.3 34 30.3571V19.4286H21.25V23.0714ZM30.8125 7.28571H25.5V3.64286C25.5 1.7 24.0125 0 22.3125 0H11.6875C9.9875 0 8.5 1.7 8.5 3.64286V7.28571H3.1875C1.4875 7.28571 0 8.98571 0 10.9286V17H34V10.9286C34 8.98571 32.5125 7.28571 30.8125 7.28571ZM21.25 7.28571H12.75V4.85714H21.25V7.28571Z" fill="#F95D2C"/>
</svg>
