<svg width="34" height="34" viewBox="0 0 34 34" fill="none" xmlns="http://www.w3.org/2000/svg">
<path d="M14.8584 8.68262L10.2677 1.03195C10.0789 0.717227 9.81188 0.456755 9.49255 0.275907C9.17322 0.0950601 8.81249 4.50583e-06 8.4455 0H1.06444C0.204483 0 -0.298876 0.967539 0.193858 1.67211L7.58288 12.228C9.55648 10.3839 12.0666 9.11824 14.8584 8.68262ZM32.9355 0H25.5544C24.808 0 24.116 0.391797 23.7322 1.03195L19.1416 8.68262C21.9333 9.11824 24.4434 10.3839 26.417 12.2274L33.806 1.67211C34.2988 0.967539 33.7954 0 32.9355 0ZM17 10.625C10.5453 10.625 5.31245 15.8578 5.31245 22.3125C5.31245 28.7672 10.5453 34 17 34C23.4546 34 28.6875 28.7672 28.6875 22.3125C28.6875 15.8578 23.4546 10.625 17 10.625ZM23.1439 21.068L20.6251 23.5224L21.2207 26.9902C21.327 27.6117 20.6722 28.0865 20.1151 27.793L17 26.1561L13.8855 27.793C13.3277 28.0885 12.6736 27.6111 12.7798 26.9902L13.3755 23.5224L10.8567 21.068C10.4038 20.6271 10.6542 19.8575 11.2784 19.7671L14.7601 19.2598L16.316 16.1042C16.4561 15.82 16.727 15.6798 16.9986 15.6798C17.2716 15.6798 17.5445 15.822 17.6846 16.1042L19.2405 19.2598L22.7222 19.7671C23.3464 19.8575 23.5968 20.6271 23.1439 21.068Z" fill="#F95D2C"/>
</svg>
